<svg xmlns="http://www.w3.org/2000/svg" xmlns:xlink="http://www.w3.org/1999/xlink" width="1280" zoomAndPan="magnify" viewBox="0 0 960 599.999999" height="800" preserveAspectRatio="xMidYMid meet" version="1.0"><defs><clipPath id="c49fbe4263"><path d="M 104.414062 445 L 420 445 L 420 600 L 104.414062 600 Z M 104.414062 445 " clip-rule="nonzero"/></clipPath><clipPath id="eca78db32a"><path d="M 540 263 L 855.914062 263 L 855.914062 419 L 540 419 Z M 540 263 " clip-rule="nonzero"/></clipPath></defs><g clip-path="url(#c49fbe4263)"><path fill="#784486" d="M 200.621094 445.894531 L 323.785156 445.894531 C 376.746094 445.894531 419.992188 489.054688 419.992188 541.90625 L 419.992188 599.761719 L 104.414062 599.761719 L 104.414062 541.90625 C 104.414062 489.054688 147.660156 445.894531 200.621094 445.894531 Z M 200.621094 445.894531 " fill-opacity="1" fill-rule="evenodd"/></g><path fill="#ea883a" d="M 233.214844 442.769531 L 291.191406 442.769531 C 296.519531 449.335938 299.652344 457.46875 299.652344 466.535156 C 299.652344 487.179688 282.730469 504.066406 262.046875 504.066406 C 241.363281 504.066406 224.753906 487.179688 224.753906 466.535156 C 224.753906 457.46875 227.886719 449.335938 233.214844 442.769531 Z M 233.214844 442.769531 " fill-opacity="1" fill-rule="evenodd"/><path fill="#595f72" d="M 262.046875 182.257812 C 334.4375 182.257812 393.042969 241.675781 393.042969 315.171875 C 393.042969 388.664062 334.4375 448.398438 262.046875 448.398438 C 189.96875 448.398438 131.363281 388.664062 131.363281 315.171875 C 131.363281 241.675781 189.96875 182.257812 262.046875 182.257812 Z M 262.046875 182.257812 " fill-opacity="1" fill-rule="evenodd"/><path fill="#f89b51" d="M 378.625 327.367188 C 378.625 341.753906 378.625 343.316406 378.625 357.703125 C 378.625 421.503906 326.289062 473.730469 262.046875 473.730469 C 198.117188 473.730469 145.78125 421.503906 145.78125 357.703125 C 145.78125 348.007812 145.78125 351.449219 145.78125 341.753906 C 288.058594 291.089844 299.96875 253.558594 378.625 327.367188 Z M 378.625 327.367188 " fill-opacity="1" fill-rule="evenodd"/><path fill="#ea883a" d="M 378.625 327.367188 L 378.625 332.996094 C 342.585938 323.300781 236.976562 305.789062 153.617188 400.234375 C 148.601562 386.789062 145.78125 372.714844 145.78125 357.703125 C 145.78125 348.007812 145.78125 351.449219 145.78125 341.753906 C 288.058594 291.089844 299.96875 253.558594 378.625 327.367188 Z M 378.625 327.367188 " fill-opacity="1" fill-rule="evenodd"/><g clip-path="url(#eca78db32a)"><path fill="#60abb5" d="M 636.542969 263.882812 L 759.703125 263.882812 C 812.667969 263.882812 855.914062 307.351562 855.914062 360.207031 L 855.914062 418.0625 L 540.335938 418.0625 L 540.335938 360.207031 C 540.335938 307.351562 583.582031 263.882812 636.542969 263.882812 Z M 636.542969 263.882812 " fill-opacity="1" fill-rule="evenodd"/></g><path fill="#ea883a" d="M 669.136719 261.066406 L 727.113281 261.066406 C 732.441406 267.632812 735.574219 275.765625 735.574219 284.835938 C 735.574219 305.476562 718.964844 322.363281 697.96875 322.363281 C 677.285156 322.363281 660.675781 305.476562 660.675781 284.835938 C 660.675781 275.765625 663.808594 267.632812 669.136719 261.066406 Z M 669.136719 261.066406 " fill-opacity="1" fill-rule="evenodd"/><path fill="#61545d" d="M 697.96875 0.242188 C 770.359375 0.242188 828.964844 59.976562 828.964844 133.46875 C 828.964844 206.964844 770.359375 266.382812 697.96875 266.382812 C 625.886719 266.382812 567.285156 206.964844 567.285156 133.46875 C 567.285156 59.976562 625.886719 0.242188 697.96875 0.242188 Z M 697.96875 0.242188 " fill-opacity="1" fill-rule="evenodd"/><path fill="#f89b51" d="M 814.546875 145.355469 C 814.546875 160.054688 814.546875 161.304688 814.546875 175.6875 C 814.546875 239.800781 762.210938 292.027344 697.96875 292.027344 C 634.035156 292.027344 581.699219 239.800781 581.699219 175.6875 C 581.699219 166.308594 581.699219 169.433594 581.699219 160.054688 C 723.980469 109.386719 736.203125 71.859375 814.546875 145.355469 Z M 814.546875 145.355469 " fill-opacity="1" fill-rule="evenodd"/><path fill="#ea883a" d="M 814.546875 145.355469 L 814.546875 151.296875 C 778.507812 141.601562 672.898438 124.085938 589.847656 218.222656 C 584.523438 205.085938 581.699219 190.699219 581.699219 175.6875 C 581.699219 166.308594 581.699219 169.433594 581.699219 160.054688 C 723.980469 109.386719 736.203125 71.859375 814.546875 145.355469 Z M 814.546875 145.355469 " fill-opacity="1" fill-rule="evenodd"/><path fill="#7e92a3" d="M 451.019531 220.097656 L 485.179688 200.707031 C 492.699219 196.328125 501.160156 195.390625 508.996094 197.582031 C 516.828125 199.457031 524.039062 204.773438 528.113281 212.28125 C 532.5 219.785156 533.441406 228.230469 531.246094 236.046875 C 529.367188 243.867188 524.351562 250.746094 516.828125 255.125 L 482.671875 274.828125 C 475.148438 279.207031 466.6875 279.832031 458.851562 277.953125 C 451.019531 275.765625 443.8125 270.761719 439.738281 263.253906 C 435.351562 255.75 434.410156 246.992188 436.601562 239.175781 C 438.484375 231.667969 443.496094 224.476562 451.019531 220.097656 Z M 494.578125 216.96875 L 460.734375 236.671875 C 457.601562 238.238281 455.71875 241.050781 454.777344 244.179688 C 453.839844 247.308594 454.152344 250.746094 456.035156 253.875 C 457.601562 256.6875 460.421875 258.878906 463.554688 259.503906 C 466.6875 260.441406 470.136719 260.128906 473.269531 258.253906 L 507.117188 238.863281 C 510.25 236.984375 512.128906 234.171875 513.070312 231.042969 C 514.007812 227.917969 513.695312 224.476562 511.816406 221.664062 C 510.25 218.535156 507.429688 216.65625 504.292969 215.71875 C 501.160156 214.78125 497.714844 215.09375 494.578125 216.96875 Z M 494.578125 216.96875 " fill-opacity="1" fill-rule="nonzero"/><path fill="#93a6b7" d="M 507.742188 234.796875 C 503.039062 237.613281 497.398438 236.046875 494.894531 231.355469 C 492.070312 226.980469 493.640625 221.035156 498.339844 218.535156 L 550.988281 188.199219 C 555.691406 185.382812 561.332031 186.945312 563.839844 191.640625 C 566.660156 196.015625 565.09375 201.957031 560.390625 204.460938 Z M 507.742188 234.796875 " fill-opacity="1" fill-rule="nonzero"/><path fill="#93a6b7" d="M 416.859375 287.335938 C 412.160156 289.839844 406.519531 288.277344 404.011719 283.898438 C 401.191406 279.207031 402.757812 273.578125 407.457031 270.761719 L 460.109375 240.425781 C 464.808594 237.925781 470.449219 239.488281 472.957031 243.867188 C 475.777344 248.558594 474.210938 254.1875 469.507812 256.6875 Z M 416.859375 287.335938 " fill-opacity="1" fill-rule="nonzero"/></svg>