<svg xmlns="http://www.w3.org/2000/svg" xmlns:xlink="http://www.w3.org/1999/xlink" width="1280" zoomAndPan="magnify" viewBox="0 0 960 599.999999" height="800" preserveAspectRatio="xMidYMid meet" version="1.0"><defs><clipPath id="66145dbe26"><path d="M 275 14.6875 L 685 14.6875 L 685 585.4375 L 275 585.4375 Z M 275 14.6875 " clip-rule="nonzero"/></clipPath></defs><g clip-path="url(#66145dbe26)"><path fill="#ffffff" d="M 480 585.308594 C 478.949219 585.308594 477.910156 585.199219 476.882812 584.980469 C 475.855469 584.761719 474.863281 584.4375 473.902344 584.011719 C 472.941406 583.585938 472.039062 583.0625 471.1875 582.445312 C 470.335938 581.828125 469.558594 581.132812 468.855469 580.351562 C 460.957031 571.613281 275.777344 364.925781 275.777344 218.910156 C 275.777344 215.566406 275.859375 212.226562 276.027344 208.890625 C 276.191406 205.550781 276.4375 202.222656 276.765625 198.894531 C 277.09375 195.570312 277.503906 192.253906 277.996094 188.949219 C 278.488281 185.644531 279.058594 182.355469 279.710938 179.078125 C 280.367188 175.800781 281.097656 172.539062 281.910156 169.300781 C 282.722656 166.058594 283.617188 162.839844 284.585938 159.640625 C 285.558594 156.445312 286.605469 153.273438 287.734375 150.125 C 288.859375 146.980469 290.0625 143.863281 291.34375 140.777344 C 292.621094 137.691406 293.976562 134.636719 295.40625 131.617188 C 296.835938 128.597656 298.339844 125.613281 299.914062 122.667969 C 301.488281 119.71875 303.136719 116.8125 304.855469 113.949219 C 306.574219 111.082031 308.363281 108.261719 310.21875 105.484375 C 312.074219 102.703125 314 99.972656 315.992188 97.289062 C 317.980469 94.605469 320.039062 91.972656 322.15625 89.390625 C 324.277344 86.808594 326.460938 84.28125 328.707031 81.804688 C 330.949219 79.328125 333.253906 76.910156 335.617188 74.546875 C 337.980469 72.183594 340.398438 69.882812 342.875 67.636719 C 345.351562 65.394531 347.882812 63.214844 350.464844 61.09375 C 353.050781 58.972656 355.683594 56.917969 358.367188 54.929688 C 361.050781 52.9375 363.78125 51.015625 366.5625 49.160156 C 369.339844 47.304688 372.164062 45.515625 375.027344 43.800781 C 377.894531 42.082031 380.800781 40.433594 383.75 38.859375 C 386.695312 37.285156 389.679688 35.785156 392.699219 34.355469 C 395.722656 32.925781 398.777344 31.574219 401.863281 30.296875 C 404.949219 29.015625 408.066406 27.816406 411.214844 26.691406 C 414.359375 25.5625 417.53125 24.515625 420.730469 23.546875 C 423.925781 22.578125 427.144531 21.6875 430.386719 20.875 C 433.628906 20.0625 436.886719 19.332031 440.164062 18.679688 C 443.441406 18.027344 446.734375 17.457031 450.039062 16.964844 C 453.34375 16.476562 456.660156 16.066406 459.984375 15.738281 C 463.3125 15.414062 466.644531 15.167969 469.980469 15.003906 C 473.316406 14.839844 476.65625 14.757812 480 14.757812 C 483.339844 14.757812 486.679688 14.839844 490.015625 15.003906 C 493.355469 15.167969 496.6875 15.414062 500.011719 15.738281 C 503.335938 16.066406 506.652344 16.476562 509.957031 16.964844 C 513.261719 17.457031 516.554688 18.027344 519.832031 18.679688 C 523.109375 19.332031 526.367188 20.0625 529.609375 20.875 C 532.851562 21.6875 536.070312 22.578125 539.269531 23.546875 C 542.464844 24.515625 545.636719 25.5625 548.785156 26.691406 C 551.929688 27.816406 555.046875 29.015625 558.136719 30.296875 C 561.222656 31.574219 564.277344 32.925781 567.296875 34.355469 C 570.316406 35.785156 573.300781 37.285156 576.25 38.859375 C 579.195312 40.433594 582.101562 42.082031 584.96875 43.800781 C 587.835938 45.515625 590.660156 47.304688 593.4375 49.160156 C 596.214844 51.015625 598.945312 52.9375 601.632812 54.929688 C 604.316406 56.917969 606.949219 58.972656 609.53125 61.09375 C 612.117188 63.214844 614.644531 65.394531 617.121094 67.636719 C 619.597656 69.882812 622.019531 72.183594 624.382812 74.546875 C 626.746094 76.910156 629.046875 79.328125 631.292969 81.804688 C 633.535156 84.28125 635.71875 86.808594 637.839844 89.390625 C 639.960938 91.972656 642.015625 94.605469 644.007812 97.289062 C 645.996094 99.972656 647.921875 102.703125 649.777344 105.484375 C 651.636719 108.261719 653.425781 111.082031 655.140625 113.949219 C 656.859375 116.8125 658.507812 119.71875 660.085938 122.667969 C 661.660156 125.613281 663.164062 128.597656 664.59375 131.617188 C 666.023438 134.636719 667.375 137.691406 668.65625 140.777344 C 669.933594 143.863281 671.136719 146.980469 672.265625 150.125 C 673.390625 153.273438 674.441406 156.445312 675.410156 159.640625 C 676.382812 162.839844 677.273438 166.058594 678.085938 169.300781 C 678.898438 172.539062 679.632812 175.800781 680.285156 179.078125 C 680.9375 182.355469 681.511719 185.644531 682 188.949219 C 682.492188 192.253906 682.902344 195.570312 683.230469 198.894531 C 683.558594 202.222656 683.808594 205.550781 683.972656 208.890625 C 684.136719 212.226562 684.21875 215.566406 684.222656 218.910156 C 684.222656 364.925781 499.039062 571.613281 491.140625 580.351562 C 490.4375 581.132812 489.660156 581.828125 488.808594 582.445312 C 487.960938 583.0625 487.054688 583.585938 486.09375 584.011719 C 485.136719 584.4375 484.144531 584.761719 483.117188 584.980469 C 482.089844 585.199219 481.050781 585.308594 480 585.308594 Z M 480 44.71875 C 477.148438 44.722656 474.300781 44.796875 471.453125 44.9375 C 468.609375 45.082031 465.769531 45.292969 462.933594 45.578125 C 460.097656 45.859375 457.269531 46.210938 454.449219 46.632812 C 451.632812 47.050781 448.824219 47.542969 446.03125 48.101562 C 443.234375 48.660156 440.457031 49.285156 437.691406 49.980469 C 434.929688 50.675781 432.183594 51.4375 429.457031 52.265625 C 426.730469 53.097656 424.027344 53.992188 421.34375 54.953125 C 418.660156 55.914062 416.003906 56.941406 413.371094 58.035156 C 410.738281 59.125 408.136719 60.28125 405.558594 61.503906 C 402.984375 62.722656 400.441406 64.003906 397.929688 65.347656 C 395.414062 66.691406 392.9375 68.097656 390.492188 69.566406 C 388.050781 71.03125 385.644531 72.554688 383.273438 74.140625 C 380.90625 75.722656 378.578125 77.363281 376.289062 79.0625 C 374 80.761719 371.753906 82.515625 369.550781 84.324219 C 367.347656 86.128906 365.191406 87.992188 363.078125 89.90625 C 360.96875 91.820312 358.90625 93.785156 356.890625 95.800781 C 354.875 97.8125 352.910156 99.878906 350.996094 101.988281 C 349.082031 104.101562 347.222656 106.257812 345.414062 108.460938 C 343.605469 110.664062 341.851562 112.910156 340.152344 115.195312 C 338.457031 117.484375 336.8125 119.816406 335.230469 122.183594 C 333.644531 124.550781 332.121094 126.960938 330.65625 129.402344 C 329.1875 131.847656 327.785156 134.324219 326.4375 136.835938 C 325.09375 139.351562 323.8125 141.894531 322.59375 144.46875 C 321.371094 147.046875 320.21875 149.648438 319.125 152.28125 C 318.03125 154.914062 317.003906 157.570312 316.042969 160.253906 C 315.082031 162.9375 314.1875 165.640625 313.355469 168.367188 C 312.527344 171.09375 311.765625 173.839844 311.070312 176.601562 C 310.375 179.367188 309.75 182.144531 309.191406 184.941406 C 308.632812 187.734375 308.144531 190.542969 307.722656 193.359375 C 307.300781 196.179688 306.949219 199.003906 306.667969 201.839844 C 306.386719 204.675781 306.171875 207.519531 306.027344 210.363281 C 305.886719 213.210938 305.8125 216.058594 305.808594 218.910156 C 305.808594 333.875 439.964844 500.253906 480 547.375 C 520.03125 500.253906 654.1875 333.875 654.1875 218.910156 C 654.183594 216.058594 654.113281 213.210938 653.96875 210.363281 C 653.824219 207.519531 653.613281 204.675781 653.332031 201.839844 C 653.046875 199.003906 652.695312 196.179688 652.277344 193.359375 C 651.855469 190.542969 651.367188 187.734375 650.808594 184.941406 C 650.25 182.144531 649.621094 179.367188 648.925781 176.601562 C 648.230469 173.839844 647.46875 171.09375 646.640625 168.367188 C 645.8125 165.640625 644.917969 162.9375 643.953125 160.253906 C 642.992188 157.570312 641.964844 154.914062 640.875 152.28125 C 639.78125 149.648438 638.625 147.046875 637.40625 144.46875 C 636.183594 141.894531 634.902344 139.351562 633.558594 136.835938 C 632.214844 134.324219 630.808594 131.847656 629.34375 129.402344 C 627.875 126.960938 626.351562 124.550781 624.769531 122.183594 C 623.183594 119.816406 621.542969 117.484375 619.84375 115.195312 C 618.148438 112.910156 616.394531 110.664062 614.585938 108.460938 C 612.777344 106.257812 610.914062 104.101562 609 101.988281 C 607.085938 99.878906 605.125 97.8125 603.109375 95.800781 C 601.09375 93.785156 599.03125 91.820312 596.917969 89.90625 C 594.808594 87.992188 592.648438 86.128906 590.445312 84.324219 C 588.246094 82.515625 586 80.761719 583.710938 79.0625 C 581.421875 77.363281 579.09375 75.722656 576.722656 74.140625 C 574.355469 72.554688 571.949219 71.03125 569.503906 69.566406 C 567.0625 68.097656 564.582031 66.691406 562.070312 65.347656 C 559.558594 64.003906 557.011719 62.722656 554.4375 61.503906 C 551.863281 60.28125 549.257812 59.125 546.625 58.035156 C 543.992188 56.941406 541.335938 55.914062 538.652344 54.953125 C 535.972656 53.992188 533.265625 53.097656 530.539062 52.265625 C 527.8125 51.4375 525.070312 50.675781 522.304688 49.980469 C 519.539062 49.285156 516.761719 48.660156 513.96875 48.101562 C 511.171875 47.542969 508.367188 47.050781 505.546875 46.632812 C 502.730469 46.210938 499.902344 45.859375 497.066406 45.578125 C 494.230469 45.292969 491.390625 45.082031 488.542969 44.9375 C 485.695312 44.796875 482.847656 44.722656 480 44.71875 Z M 480 301.5 C 478.648438 301.5 477.296875 301.464844 475.945312 301.398438 C 474.597656 301.332031 473.25 301.234375 471.902344 301.101562 C 470.558594 300.96875 469.21875 300.804688 467.878906 300.605469 C 466.542969 300.40625 465.210938 300.175781 463.886719 299.910156 C 462.5625 299.648438 461.242188 299.351562 459.929688 299.023438 C 458.621094 298.695312 457.316406 298.335938 456.023438 297.941406 C 454.730469 297.550781 453.449219 297.125 452.175781 296.671875 C 450.902344 296.214844 449.640625 295.730469 448.394531 295.210938 C 447.144531 294.695312 445.910156 294.148438 444.6875 293.570312 C 443.464844 292.992188 442.257812 292.382812 441.066406 291.746094 C 439.875 291.109375 438.699219 290.441406 437.539062 289.75 C 436.378906 289.054688 435.238281 288.332031 434.113281 287.578125 C 432.992188 286.828125 431.886719 286.050781 430.800781 285.246094 C 429.714844 284.441406 428.648438 283.609375 427.605469 282.75 C 426.558594 281.894531 425.535156 281.011719 424.535156 280.105469 C 423.535156 279.195312 422.554688 278.265625 421.597656 277.308594 C 420.644531 276.351562 419.710938 275.375 418.804688 274.371094 C 417.894531 273.371094 417.011719 272.347656 416.15625 271.304688 C 415.296875 270.257812 414.46875 269.191406 413.664062 268.105469 C 412.855469 267.023438 412.078125 265.917969 411.328125 264.792969 C 410.578125 263.667969 409.855469 262.527344 409.160156 261.367188 C 408.464844 260.207031 407.796875 259.03125 407.160156 257.839844 C 406.523438 256.648438 405.917969 255.441406 405.339844 254.21875 C 404.761719 253 404.214844 251.761719 403.695312 250.515625 C 403.179688 249.265625 402.691406 248.003906 402.238281 246.730469 C 401.78125 245.460938 401.359375 244.175781 400.964844 242.882812 C 400.574219 241.589844 400.210938 240.289062 399.882812 238.976562 C 399.554688 237.664062 399.257812 236.347656 398.996094 235.019531 C 398.730469 233.695312 398.5 232.363281 398.304688 231.027344 C 398.105469 229.691406 397.9375 228.347656 397.808594 227.003906 C 397.675781 225.660156 397.574219 224.3125 397.507812 222.960938 C 397.441406 221.609375 397.410156 220.261719 397.410156 218.910156 C 397.410156 217.558594 397.441406 216.207031 397.507812 214.855469 C 397.574219 213.507812 397.675781 212.160156 397.808594 210.8125 C 397.9375 209.46875 398.105469 208.128906 398.304688 206.789062 C 398.5 205.453125 398.730469 204.121094 398.996094 202.796875 C 399.257812 201.46875 399.554688 200.152344 399.882812 198.839844 C 400.210938 197.53125 400.574219 196.226562 400.964844 194.933594 C 401.359375 193.640625 401.78125 192.355469 402.238281 191.085938 C 402.691406 189.8125 403.179688 188.550781 403.695312 187.300781 C 404.214844 186.054688 404.761719 184.820312 405.339844 183.597656 C 405.917969 182.375 406.523438 181.167969 407.160156 179.976562 C 407.796875 178.785156 408.464844 177.609375 409.160156 176.449219 C 409.855469 175.289062 410.578125 174.148438 411.328125 173.023438 C 412.078125 171.898438 412.855469 170.796875 413.664062 169.710938 C 414.46875 168.625 415.296875 167.558594 416.15625 166.515625 C 417.011719 165.46875 417.894531 164.445312 418.804688 163.445312 C 419.710938 162.441406 420.644531 161.464844 421.597656 160.507812 C 422.554688 159.554688 423.535156 158.621094 424.535156 157.714844 C 425.535156 156.804688 426.558594 155.921875 427.605469 155.066406 C 428.648438 154.207031 429.714844 153.375 430.800781 152.570312 C 431.886719 151.765625 432.992188 150.988281 434.113281 150.238281 C 435.238281 149.488281 436.378906 148.761719 437.539062 148.070312 C 438.699219 147.375 439.875 146.707031 441.066406 146.070312 C 442.257812 145.433594 443.464844 144.824219 444.6875 144.25 C 445.910156 143.671875 447.144531 143.121094 448.394531 142.605469 C 449.640625 142.089844 450.902344 141.601562 452.175781 141.144531 C 453.449219 140.691406 454.730469 140.265625 456.023438 139.875 C 457.316406 139.484375 458.621094 139.121094 459.929688 138.792969 C 461.242188 138.464844 462.5625 138.167969 463.886719 137.90625 C 465.210938 137.640625 466.542969 137.410156 467.878906 137.210938 C 469.21875 137.015625 470.558594 136.847656 471.902344 136.714844 C 473.25 136.582031 474.597656 136.484375 475.945312 136.417969 C 477.296875 136.351562 478.648438 136.320312 480 136.320312 C 481.351562 136.320312 482.703125 136.351562 484.050781 136.417969 C 485.402344 136.484375 486.75 136.582031 488.09375 136.714844 C 489.4375 136.847656 490.78125 137.015625 492.117188 137.210938 C 493.453125 137.410156 494.785156 137.640625 496.113281 137.90625 C 497.4375 138.167969 498.753906 138.464844 500.066406 138.792969 C 501.378906 139.121094 502.679688 139.484375 503.972656 139.875 C 505.265625 140.265625 506.550781 140.691406 507.824219 141.144531 C 509.09375 141.601562 510.355469 142.089844 511.605469 142.605469 C 512.851562 143.121094 514.089844 143.671875 515.3125 144.25 C 516.53125 144.824219 517.738281 145.433594 518.929688 146.070312 C 520.125 146.707031 521.300781 147.375 522.457031 148.070312 C 523.617188 148.761719 524.757812 149.488281 525.882812 150.238281 C 527.007812 150.988281 528.113281 151.765625 529.199219 152.570312 C 530.285156 153.375 531.347656 154.207031 532.394531 155.066406 C 533.4375 155.921875 534.460938 156.804688 535.464844 157.714844 C 536.464844 158.621094 537.441406 159.554688 538.398438 160.507812 C 539.355469 161.464844 540.285156 162.441406 541.195312 163.445312 C 542.101562 164.445312 542.984375 165.46875 543.84375 166.515625 C 544.699219 167.558594 545.53125 168.625 546.335938 169.710938 C 547.140625 170.796875 547.917969 171.898438 548.667969 173.023438 C 549.421875 174.148438 550.144531 175.289062 550.839844 176.449219 C 551.535156 177.609375 552.199219 178.785156 552.835938 179.976562 C 553.472656 181.167969 554.082031 182.375 554.660156 183.597656 C 555.238281 184.820312 555.785156 186.054688 556.300781 187.300781 C 556.820312 188.550781 557.304688 189.8125 557.761719 191.085938 C 558.214844 192.355469 558.640625 193.640625 559.03125 194.933594 C 559.425781 196.226562 559.785156 197.53125 560.113281 198.839844 C 560.441406 200.152344 560.738281 201.46875 561 202.796875 C 561.265625 204.121094 561.496094 205.453125 561.695312 206.789062 C 561.894531 208.128906 562.058594 209.46875 562.191406 210.8125 C 562.324219 212.160156 562.421875 213.507812 562.488281 214.855469 C 562.554688 216.207031 562.589844 217.558594 562.589844 218.910156 C 562.585938 220.257812 562.554688 221.609375 562.484375 222.960938 C 562.417969 224.308594 562.316406 225.65625 562.183594 227 C 562.050781 228.34375 561.882812 229.6875 561.683594 231.023438 C 561.484375 232.359375 561.25 233.691406 560.988281 235.015625 C 560.722656 236.339844 560.425781 237.65625 560.097656 238.96875 C 559.765625 240.277344 559.40625 241.582031 559.011719 242.871094 C 558.621094 244.164062 558.195312 245.449219 557.738281 246.71875 C 557.28125 247.992188 556.796875 249.253906 556.277344 250.5 C 555.761719 251.75 555.210938 252.984375 554.632812 254.203125 C 554.054688 255.425781 553.449219 256.632812 552.808594 257.824219 C 552.171875 259.015625 551.507812 260.191406 550.8125 261.347656 C 550.117188 262.507812 549.394531 263.648438 548.640625 264.773438 C 547.890625 265.894531 547.113281 267 546.308594 268.085938 C 545.503906 269.167969 544.671875 270.234375 543.8125 271.277344 C 542.957031 272.324219 542.074219 273.347656 541.167969 274.347656 C 540.257812 275.347656 539.328125 276.328125 538.371094 277.28125 C 537.417969 278.238281 536.4375 279.167969 535.4375 280.078125 C 534.4375 280.984375 533.414062 281.867188 532.371094 282.722656 C 531.324219 283.582031 530.261719 284.414062 529.175781 285.21875 C 528.089844 286.023438 526.984375 286.800781 525.863281 287.550781 C 524.738281 288.304688 523.597656 289.027344 522.4375 289.722656 C 521.28125 290.414062 520.105469 291.082031 518.914062 291.71875 C 517.722656 292.355469 516.515625 292.964844 515.292969 293.542969 C 514.074219 294.121094 512.839844 294.667969 511.589844 295.1875 C 510.34375 295.707031 509.082031 296.191406 507.8125 296.648438 C 506.539062 297.105469 505.257812 297.527344 503.964844 297.921875 C 502.671875 298.316406 501.367188 298.675781 500.058594 299.003906 C 498.746094 299.335938 497.429688 299.632812 496.105469 299.898438 C 494.78125 300.160156 493.449219 300.394531 492.113281 300.59375 C 490.777344 300.792969 489.4375 300.957031 488.089844 301.09375 C 486.746094 301.226562 485.398438 301.328125 484.050781 301.394531 C 482.699219 301.460938 481.351562 301.496094 480 301.5 Z M 480 166.351562 C 478.277344 166.351562 476.558594 166.4375 474.847656 166.605469 C 473.132812 166.773438 471.433594 167.023438 469.746094 167.359375 C 468.058594 167.695312 466.390625 168.113281 464.742188 168.613281 C 463.09375 169.113281 461.476562 169.691406 459.886719 170.351562 C 458.296875 171.011719 456.742188 171.746094 455.222656 172.558594 C 453.707031 173.367188 452.230469 174.253906 450.800781 175.207031 C 449.367188 176.164062 447.988281 177.1875 446.65625 178.28125 C 445.328125 179.375 444.050781 180.527344 442.835938 181.746094 C 441.617188 182.960938 440.464844 184.234375 439.371094 185.566406 C 438.28125 186.898438 437.253906 188.277344 436.300781 189.710938 C 435.34375 191.140625 434.460938 192.613281 433.648438 194.132812 C 432.835938 195.652344 432.101562 197.207031 431.441406 198.796875 C 430.785156 200.386719 430.203125 202.003906 429.703125 203.652344 C 429.207031 205.300781 428.789062 206.96875 428.453125 208.65625 C 428.117188 210.34375 427.863281 212.042969 427.695312 213.757812 C 427.527344 215.46875 427.441406 217.1875 427.441406 218.910156 C 427.441406 220.628906 427.527344 222.347656 427.695312 224.058594 C 427.863281 225.773438 428.117188 227.472656 428.453125 229.160156 C 428.789062 230.851562 429.207031 232.519531 429.703125 234.164062 C 430.203125 235.8125 430.785156 237.429688 431.441406 239.019531 C 432.101562 240.613281 432.835938 242.164062 433.648438 243.683594 C 434.460938 245.203125 435.34375 246.675781 436.300781 248.109375 C 437.253906 249.539062 438.28125 250.917969 439.371094 252.25 C 440.464844 253.582031 441.617188 254.855469 442.835938 256.070312 C 444.050781 257.289062 445.328125 258.445312 446.65625 259.535156 C 447.988281 260.628906 449.367188 261.652344 450.800781 262.609375 C 452.230469 263.566406 453.707031 264.449219 455.222656 265.257812 C 456.742188 266.070312 458.296875 266.804688 459.886719 267.464844 C 461.476562 268.125 463.09375 268.703125 464.742188 269.203125 C 466.390625 269.703125 468.058594 270.121094 469.746094 270.457031 C 471.433594 270.792969 473.132812 271.042969 474.847656 271.210938 C 476.558594 271.382812 478.277344 271.464844 480 271.464844 C 481.71875 271.464844 483.4375 271.382812 485.152344 271.210938 C 486.863281 271.042969 488.5625 270.792969 490.253906 270.457031 C 491.941406 270.121094 493.609375 269.703125 495.253906 269.203125 C 496.902344 268.703125 498.519531 268.125 500.113281 267.464844 C 501.703125 266.804688 503.257812 266.070312 504.773438 265.257812 C 506.292969 264.449219 507.765625 263.5625 509.199219 262.609375 C 510.628906 261.652344 512.011719 260.628906 513.339844 259.535156 C 514.671875 258.445312 515.945312 257.289062 517.164062 256.070312 C 518.378906 254.855469 519.535156 253.582031 520.625 252.25 C 521.71875 250.917969 522.742188 249.539062 523.699219 248.109375 C 524.65625 246.675781 525.539062 245.203125 526.351562 243.683594 C 527.160156 242.164062 527.898438 240.613281 528.554688 239.019531 C 529.214844 237.429688 529.792969 235.8125 530.292969 234.164062 C 530.792969 232.519531 531.210938 230.851562 531.546875 229.160156 C 531.882812 227.472656 532.132812 225.773438 532.304688 224.058594 C 532.472656 222.347656 532.554688 220.628906 532.554688 218.910156 C 532.554688 217.1875 532.46875 215.472656 532.296875 213.757812 C 532.128906 212.046875 531.875 210.347656 531.535156 208.660156 C 531.199219 206.972656 530.78125 205.304688 530.28125 203.660156 C 529.777344 202.011719 529.199219 200.394531 528.539062 198.804688 C 527.878906 197.214844 527.144531 195.664062 526.332031 194.144531 C 525.519531 192.628906 524.636719 191.152344 523.679688 189.722656 C 522.722656 188.292969 521.699219 186.914062 520.609375 185.582031 C 519.515625 184.253906 518.363281 182.980469 517.144531 181.761719 C 515.929688 180.546875 514.65625 179.390625 513.324219 178.300781 C 511.996094 177.207031 510.613281 176.183594 509.183594 175.226562 C 507.753906 174.269531 506.28125 173.386719 504.761719 172.574219 C 503.246094 171.761719 501.691406 171.027344 500.101562 170.367188 C 498.511719 169.707031 496.894531 169.128906 495.25 168.628906 C 493.601562 168.128906 491.9375 167.707031 490.25 167.371094 C 488.5625 167.035156 486.859375 166.78125 485.148438 166.609375 C 483.4375 166.4375 481.71875 166.351562 480 166.351562 Z M 480 166.351562 " fill-opacity="1" fill-rule="nonzero"/></g></svg>