<svg xmlns="http://www.w3.org/2000/svg" xmlns:xlink="http://www.w3.org/1999/xlink" width="1280" zoomAndPan="magnify" viewBox="0 0 960 599.999999" height="800" preserveAspectRatio="xMidYMid meet" version="1.0"><defs><clipPath id="5a3cfabffe"><path d="M 194.164062 14.164062 L 628 14.164062 L 628 448 L 194.164062 448 Z M 194.164062 14.164062 " clip-rule="nonzero"/></clipPath></defs><path fill="#ffffff" d="M 526.691406 382.320312 L 562.304688 346.703125 L 634.613281 419.011719 L 599 454.625 Z M 526.691406 382.320312 " fill-opacity="1" fill-rule="nonzero"/><path fill="#ffffff" d="M 748.8125 492.796875 C 764.546875 508.53125 764.546875 534.070312 748.8125 549.828125 L 729.808594 568.8125 C 714.046875 584.570312 688.53125 584.570312 672.792969 568.8125 L 570.953125 466.949219 C 555.195312 451.1875 555.195312 425.675781 570.933594 409.9375 L 589.9375 390.933594 C 605.675781 375.195312 631.234375 375.195312 646.972656 390.933594 Z M 748.8125 492.796875 " fill-opacity="1" fill-rule="nonzero"/><g clip-path="url(#5a3cfabffe)"><path fill="#ffffff" d="M 410.46875 13.898438 C 290.839844 13.898438 193.898438 110.839844 193.898438 230.46875 C 193.898438 350.101562 290.839844 447.0625 410.46875 447.0625 C 530.101562 447.0625 627.0625 350.101562 627.0625 230.46875 C 627.0625 110.839844 530.101562 13.898438 410.46875 13.898438 Z M 410.46875 406.980469 C 312.957031 406.980469 233.9375 327.984375 233.9375 230.46875 C 233.9375 132.957031 312.957031 53.960938 410.46875 53.960938 C 507.984375 53.960938 587 132.957031 587 230.46875 C 587 327.984375 507.984375 406.980469 410.46875 406.980469 Z M 410.46875 406.980469 " fill-opacity="1" fill-rule="nonzero"/></g><path fill="#ffffff" d="M 454.878906 337.671875 C 368.488281 337.671875 298.410156 267.617188 298.410156 181.203125 C 298.410156 178.910156 298.652344 176.65625 298.761719 174.363281 C 287.351562 192.816406 280.664062 214.511719 280.664062 237.777344 C 280.664062 304.585938 334.828125 358.730469 401.617188 358.730469 C 427.421875 358.730469 451.257812 350.605469 470.925781 336.855469 C 465.648438 337.429688 460.285156 337.671875 454.878906 337.671875 Z M 454.878906 337.671875 " fill-opacity="1" fill-rule="nonzero"/></svg>