<svg xmlns="http://www.w3.org/2000/svg" xmlns:xlink="http://www.w3.org/1999/xlink" width="1280" zoomAndPan="magnify" viewBox="0 0 960 599.999999" height="800" preserveAspectRatio="xMidYMid meet" version="1.0"><defs><clipPath id="71a9c52ddd"><path d="M 502 164 L 666 164 L 666 593.367188 L 502 593.367188 Z M 502 164 " clip-rule="nonzero"/></clipPath><clipPath id="fd281f4e92"><path d="M 370 388 L 594 388 L 594 593.367188 L 370 593.367188 Z M 370 388 " clip-rule="nonzero"/></clipPath><clipPath id="ee0f46537e"><path d="M 295 170 L 446 170 L 446 593.367188 L 295 593.367188 Z M 295 170 " clip-rule="nonzero"/></clipPath><clipPath id="b22ae13ffc"><path d="M 461 440 L 515 440 L 515 593.367188 L 461 593.367188 Z M 461 440 " clip-rule="nonzero"/></clipPath><clipPath id="54430e6f8d"><path d="M 482 539 L 498 539 L 498 593.367188 L 482 593.367188 Z M 482 539 " clip-rule="nonzero"/></clipPath></defs><path fill="#d17750" d="M 436.621094 169.109375 C 435.882812 160.429688 434.996094 151.753906 434.414062 143.074219 C 433.984375 136.882812 435.027344 132.804688 437.753906 127.253906 C 438.886719 124.890625 439.929688 122.683594 440.449219 120.078125 C 441.460938 114.863281 440.785156 109.285156 438.519531 104.5 C 435.578125 98.308594 429.144531 94.75 426.476562 88.523438 C 428.253906 86.5625 430.246094 84.753906 432.484375 83.160156 C 434.109375 81.964844 432.085938 79.570312 430.492188 80.765625 C 430.15625 80.980469 429.847656 81.226562 429.542969 81.503906 C 427.980469 82.667969 426.507812 83.957031 425.253906 85.273438 C 424.578125 85.949219 423.996094 86.625 423.382812 87.296875 C 422.800781 88.003906 422.21875 88.738281 421.699219 89.476562 C 420.167969 91.5625 418.878906 93.800781 417.839844 96.160156 C 417.5625 96.742188 417.347656 97.296875 417.101562 97.878906 L 417.101562 97.910156 C 416.644531 99.105469 416.246094 100.269531 415.90625 101.527344 C 415.324219 103.519531 414.957031 105.574219 414.683594 107.71875 C 414.191406 111.675781 414.375 115.816406 412.9375 119.585938 C 411.3125 123.972656 407.972656 126.484375 405.09375 129.953125 C 402.425781 133.171875 400.558594 136.113281 400.003906 140.375 C 399.023438 147.765625 401.90625 155.003906 397.09375 161.625 C 393.632812 166.410156 388.269531 169.445312 384.316406 173.800781 C 376.8125 181.957031 376.535156 192.65625 379.570312 202.835938 C 379.84375 203.789062 380.792969 204.433594 381.773438 203.972656 C 394.09375 197.839844 408.035156 198.359375 420.808594 193.945312 C 425.867188 192.167969 431.59375 189.46875 434.8125 185.023438 C 436.4375 182.753906 437.050781 180.269531 437.171875 177.695312 C 437.324219 174.84375 436.894531 171.929688 436.621094 169.109375 Z M 436.621094 169.109375 " fill-opacity="1" fill-rule="nonzero"/><path fill="#d17750" d="M 430.675781 70.433594 C 430.523438 69.667969 430.308594 68.929688 430 68.195312 C 429.605469 67.152344 429.144531 66.140625 428.5625 65.222656 C 427.488281 63.472656 426.140625 61.910156 424.546875 60.621094 C 424.058594 60.160156 423.507812 59.761719 422.953125 59.363281 C 421.945312 58.691406 420.902344 58.078125 419.828125 57.585938 C 415.570312 55.59375 410.699219 54.917969 406.285156 56.023438 C 401.355469 57.28125 396.757812 60.40625 394 64.667969 C 390.660156 69.757812 392.46875 71.476562 394.949219 76.046875 C 396.757812 79.355469 394.949219 80.183594 394.460938 83.679688 C 394.214844 85.246094 394.335938 86.929688 394.890625 88.433594 C 394.917969 88.585938 394.949219 88.710938 395.011719 88.863281 C 395.347656 89.722656 395.777344 90.519531 396.328125 91.222656 C 398.320312 93.921875 401.628906 95.425781 405.0625 95.394531 C 406.5 95.363281 407.820312 95.179688 409.105469 94.871094 C 408.585938 95.640625 408.0625 96.4375 407.574219 97.296875 C 407.328125 97.753906 407.328125 98.429688 407.636719 98.859375 C 408.890625 100.636719 410.605469 100.945312 412.445312 100.515625 C 413.945312 100.117188 415.601562 99.136719 417.132812 97.96875 L 417.132812 97.9375 C 419.125 96.4375 421.054688 94.566406 422.464844 93.003906 C 423.261719 92.113281 423.875 91.40625 424.304688 90.824219 C 424.640625 90.394531 424.976562 89.9375 425.285156 89.476562 C 426.96875 87.113281 428.5 84.417969 429.574219 81.566406 C 430.429688 79.296875 430.953125 76.902344 431.011719 74.542969 C 431.042969 73.132812 430.980469 71.78125 430.675781 70.433594 Z M 430.675781 70.433594 " fill-opacity="1" fill-rule="nonzero"/><path fill="#d17750" d="M 540.671875 196.429688 C 539.109375 195.539062 537.546875 194.710938 536.015625 193.851562 C 538.742188 188.734375 539.570312 182.660156 539.015625 176.527344 C 538.222656 167.605469 533.65625 159.910156 538.527344 151.355469 C 540.824219 147.335938 543 143.964844 543.980469 139.335938 C 546.769531 126.792969 541.957031 114.4375 540.394531 102.109375 C 539.171875 92.234375 541.285156 84.847656 544.714844 75.738281 C 546.554688 70.984375 547.8125 66.234375 548.210938 61.082031 C 549.648438 41.734375 539.660156 22.261719 522.105469 13.523438 C 511.410156 8.1875 499.125 6.898438 487.328125 7.082031 C 480.894531 7.175781 474.09375 7.574219 468.699219 10.792969 C 467.78125 11.347656 466.890625 12.019531 466.035156 12.757812 C 466.003906 12.757812 466.003906 12.757812 465.972656 12.757812 C 453.6875 11.160156 441.371094 13.1875 432.757812 23.210938 C 424.425781 32.933594 422.21875 44.644531 422.832031 56.636719 C 422.894531 57.554688 422.925781 58.476562 423.015625 59.363281 C 423.199219 61.386719 423.445312 63.414062 423.722656 65.4375 C 424.117188 68.042969 424.609375 70.617188 425.128906 73.195312 C 425.496094 75.003906 425.925781 76.84375 426.355469 78.621094 C 426.417969 78.804688 426.449219 79.050781 426.507812 79.234375 C 426.050781 80.0625 425.683594 80.953125 425.3125 81.808594 C 424.546875 83.589844 423.933594 85.429688 423.445312 87.328125 C 422.984375 89.167969 422.648438 91.039062 422.464844 92.972656 C 422.371094 94.074219 422.3125 95.148438 422.34375 96.253906 C 422.34375 96.683594 422.34375 97.140625 422.371094 97.570312 C 422.925781 109.160156 431.410156 120.078125 428.253906 131.820312 C 425.589844 141.695312 416.917969 148.625 414.835938 158.804688 C 413.855469 163.558594 414.128906 168.617188 415.539062 173.277344 C 417.011719 178.125 420.351562 181.894531 422.15625 186.554688 C 422.527344 187.507812 423.875 187.71875 424.578125 187.078125 C 428.835938 183.183594 432.757812 179.964844 437.203125 177.695312 C 441 175.792969 445.136719 174.535156 450.132812 174.136719 C 453.320312 173.890625 456.074219 173.402344 458.066406 171.621094 C 458.832031 175.332031 459.8125 179.839844 462.234375 181.648438 C 464.59375 183.398438 468.882812 182.628906 471.550781 182.722656 C 475.808594 182.84375 480.066406 183.058594 484.324219 183.335938 C 493.058594 183.917969 501.914062 184.59375 510.460938 186.585938 C 518 188.332031 524.890625 191.429688 531.664062 194.988281 C 530.4375 196.613281 528.875 198.144531 526.914062 199.527344 C 525.261719 200.660156 527.28125 203.050781 528.90625 201.917969 C 531.171875 200.382812 532.949219 198.515625 534.421875 196.519531 C 535.921875 197.316406 537.453125 198.175781 538.957031 199.066406 C 540.609375 199.957031 542.386719 197.410156 540.671875 196.429688 Z M 540.671875 196.429688 " fill-opacity="1" fill-rule="nonzero"/><path fill="#9e4b29" d="M 538.527344 114.191406 C 536.933594 106.125 532.890625 98.335938 533.746094 89.90625 C 534.328125 84.261719 537.484375 79.753906 533.902344 74.542969 C 530.070312 68.960938 522.992188 64.269531 517.753906 60.222656 C 516.160156 58.996094 514.382812 61.542969 515.976562 62.769531 C 518.457031 64.699219 520.910156 66.632812 523.269531 68.6875 C 527.773438 72.582031 530.46875 73.164062 531.664062 78.957031 C 532.796875 84.417969 530.132812 89.566406 530.621094 95.085938 C 531.878906 109.070312 538.773438 119.003906 534.113281 133.601562 C 533.503906 135.5 536.445312 136.605469 537.054688 134.671875 C 539.230469 127.898438 539.90625 121.152344 538.527344 114.191406 Z M 538.527344 114.191406 " fill-opacity="1" fill-rule="nonzero"/><path fill="#9e4b29" d="M 428.195312 104.195312 C 419.15625 114.035156 414.128906 126.855469 414.988281 140.347656 C 415.449219 147.308594 417.316406 151.199219 413.242188 158.34375 C 411.34375 161.65625 409.65625 163.894531 407.820312 167.300781 C 404.539062 173.371094 403.007812 180.882812 403.898438 187.78125 C 404.140625 189.773438 407.207031 189.191406 406.960938 187.199219 C 405.765625 177.96875 410.023438 170.242188 415.234375 162.945312 C 418.542969 158.316406 420.6875 155.464844 419.707031 149.574219 C 417.042969 133.476562 418.695312 119.128906 430.214844 106.585938 C 431.535156 105.113281 429.542969 102.722656 428.195312 104.195312 Z M 428.195312 104.195312 " fill-opacity="1" fill-rule="nonzero"/><path fill="#9e4b29" d="M 516.039062 117.929688 C 515.792969 118.054688 515.578125 118.175781 515.332031 118.300781 C 514.8125 110.511719 512.207031 102.8125 511.65625 95.054688 C 511.503906 93.0625 508.4375 93.644531 508.59375 95.640625 C 509.082031 102.507812 511.136719 109.039062 511.933594 115.847656 C 512.117188 117.289062 512.144531 118.699219 512.144531 120.078125 C 499.003906 127.3125 485.183594 136.453125 481.90625 152.027344 C 479.484375 163.496094 486.164062 184.410156 499.523438 186.953125 C 504.273438 187.84375 507.671875 185.667969 509.082031 181.160156 C 512.542969 170.152344 504.273438 158.988281 507.214844 147.828125 C 509.449219 139.394531 514.75 132.128906 515.363281 123.234375 C 515.394531 122.777344 515.363281 122.285156 515.394531 121.824219 C 516.066406 121.457031 516.710938 121.121094 517.386719 120.753906 C 519.164062 119.800781 517.816406 116.980469 516.039062 117.929688 Z M 516.039062 117.929688 " fill-opacity="1" fill-rule="nonzero"/><g clip-path="url(#71a9c52ddd)"><path fill="#853d1c" d="M 661.269531 379.273438 C 658.542969 383.75 665.589844 392.917969 649.011719 408.800781 C 635.625 421.621094 623.277344 422.261719 619.015625 422.019531 C 617.976562 421.957031 617.425781 421.863281 617.425781 421.863281 C 617.425781 421.863281 617.425781 422.90625 617.394531 424.746094 C 617.332031 437.964844 617.027344 493.003906 614.941406 514.128906 C 613.257812 531.210938 611.726562 565.796875 603.542969 593.300781 L 578.757812 593.300781 C 562.578125 531.027344 530.929688 374.765625 530.929688 374.765625 L 502.617188 164.046875 C 502.617188 164.046875 537.269531 173.246094 562.761719 182.015625 C 588.285156 190.785156 608.691406 213.476562 617.667969 242.054688 C 626.675781 270.601562 654.191406 303.074219 661.542969 328.003906 C 668.929688 352.871094 663.996094 374.796875 661.269531 379.273438 Z M 661.269531 379.273438 " fill-opacity="1" fill-rule="nonzero"/></g><path fill="#3d1908" d="M 617.425781 421.894531 C 617.425781 421.894531 617.425781 422.9375 617.394531 424.777344 C 610.101562 416.34375 600.570312 409.261719 594.230469 400.15625 C 585.007812 386.941406 583.597656 369.769531 583.476562 354.097656 C 583.351562 333.675781 586.140625 313.316406 585.558594 292.863281 C 585.007812 271.953125 581.820312 251.253906 576.488281 231.078125 C 575.96875 229.117188 579.03125 228.5625 579.554688 230.527344 C 584.578125 249.597656 587.640625 269.070312 588.53125 288.816406 C 589.390625 308.777344 587.03125 328.585938 586.632812 348.488281 C 586.234375 370.199219 588.46875 390.925781 604.1875 407.117188 C 609.027344 412.082031 614.390625 416.804688 618.988281 422.046875 C 617.976562 421.988281 617.425781 421.894531 617.425781 421.894531 Z M 617.425781 421.894531 " fill-opacity="1" fill-rule="nonzero"/><path fill="#24140d" d="M 603.269531 376.542969 C 603.269531 376.542969 608.722656 414.382812 630.324219 412.636719 C 657.070312 410.457031 651.863281 349.621094 651.863281 349.621094 Z M 603.269531 376.542969 " fill-opacity="1" fill-rule="nonzero"/><g clip-path="url(#fd281f4e92)"><path fill="#ffe3d4" d="M 587.671875 593.332031 L 370.929688 593.332031 C 370.929688 593.332031 382.96875 494.445312 396.238281 471.292969 C 409.472656 448.050781 423.507812 410.703125 423.507812 410.703125 L 425.835938 409.9375 L 432.699219 407.667969 L 491.066406 388.289062 L 556.757812 388.59375 C 556.757812 388.59375 558.65625 391.261719 561.691406 396.292969 C 562.148438 397.121094 562.730469 398.070312 563.253906 399.082031 C 570.851562 412.480469 583.167969 438.117188 589.390625 472.335938 C 598.855469 523.972656 587.671875 593.332031 587.671875 593.332031 Z M 587.671875 593.332031 " fill-opacity="1" fill-rule="nonzero"/></g><path fill="#d99677" d="M 563.253906 399.019531 C 518.886719 412.421875 471.855469 416.222656 425.804688 409.875 C 418.605469 408.894531 411.402344 407.667969 404.265625 406.195312 C 402.335938 405.796875 402.550781 402.667969 404.511719 403.097656 C 413.824219 405.03125 423.230469 406.5625 432.667969 407.605469 C 475.992188 412.605469 520.019531 408.679688 561.660156 396.230469 C 562.179688 397.089844 562.730469 398.007812 563.253906 399.019531 Z M 563.253906 399.019531 " fill-opacity="1" fill-rule="nonzero"/><path fill="#ffb18c" d="M 511.378906 166.992188 C 511.378906 166.992188 501.546875 163.894531 491.769531 159.878906 C 491.925781 158.835938 492.078125 157.761719 492.261719 156.71875 C 493.179688 150.402344 494.285156 144.148438 495.507812 137.863281 C 496.121094 137.371094 496.335938 136.421875 495.9375 135.714844 C 496.304688 133.875 496.644531 131.976562 497.070312 130.105469 C 497.46875 128.140625 494.375 127.898438 493.976562 129.859375 C 493.671875 131.269531 493.394531 132.679688 493.121094 134.121094 C 484.082031 130.164062 470.8125 124.890625 463.125 116.949219 C 460.183594 113.914062 458.035156 110.480469 457.300781 106.585938 C 457.269531 106.339844 457.117188 106.09375 456.933594 105.941406 C 457.148438 105.265625 457.332031 104.5625 457.546875 103.886719 C 458.128906 101.957031 455.21875 100.882812 454.636719 102.8125 C 451.785156 112.042969 441.921875 152.980469 439.929688 157.179688 C 436.925781 163.558594 420.808594 170.367188 420.808594 170.367188 C 420.808594 170.367188 411.863281 181.160156 411.558594 186.371094 C 411.34375 190.359375 417.777344 193.300781 420.65625 194.804688 C 428.011719 198.667969 436.097656 201.367188 444.097656 203.542969 C 457.914062 207.253906 474.03125 210.441406 487.941406 205.660156 C 495.234375 203.113281 500.226562 198.175781 505.4375 192.6875 C 511.6875 186.035156 520.480469 177.816406 520.480469 177.816406 Z M 511.378906 166.992188 " fill-opacity="1" fill-rule="nonzero"/><path fill="#d97243" d="M 497.042969 130.136719 C 497.441406 128.171875 494.34375 127.925781 493.945312 129.890625 C 493.640625 131.300781 493.363281 132.710938 493.089844 134.152344 C 484.050781 130.195312 470.78125 124.921875 463.09375 116.980469 C 462.265625 116.828125 461.40625 117.257812 461.40625 118.328125 C 461.46875 129.953125 465.113281 140.898438 473.695312 148.992188 C 479.179688 154.175781 485.828125 158.253906 492.230469 156.75 C 493.148438 150.433594 494.253906 144.179688 495.480469 137.894531 C 496.089844 137.402344 496.304688 136.453125 495.90625 135.746094 C 496.304688 133.875 496.644531 132.003906 497.042969 130.136719 Z M 497.042969 130.136719 " fill-opacity="1" fill-rule="nonzero"/><path fill="#ffb18c" d="M 528.507812 85.457031 C 527.589844 74.234375 534.667969 56.023438 532.398438 47.527344 C 532.125 46.578125 531.816406 45.535156 531.082031 44.738281 C 530.222656 43.757812 528.8125 43.265625 527.464844 42.867188 C 522.011719 41.273438 505.621094 23.488281 499.921875 22.8125 C 490.820312 21.648438 489.105469 25.664062 479.945312 25.878906 C 473.480469 26.035156 470.109375 38.851562 464.5 41.609375 C 457.425781 45.136719 452.613281 51.546875 450.039062 58.476562 C 448.691406 62.0625 447.835938 65.710938 447.3125 69.515625 C 446.824219 73.007812 446.609375 76.597656 446.457031 80.125 C 445.933594 90.121094 446.300781 97.082031 448.507812 106.953125 C 450.746094 116.796875 455.308594 126.457031 463.125 133.753906 C 472.34375 142.460938 489.871094 150.710938 502.339844 144.027344 C 506.109375 142 508.746094 138.566406 511.472656 135.410156 C 514.414062 132.035156 517.445312 128.785156 520.050781 125.136719 C 524.738281 118.515625 527.496094 111.15625 528.417969 103.089844 C 528.539062 102.140625 528.601562 101.160156 528.660156 100.175781 C 528.875 97.019531 528.875 93.675781 528.753906 89.964844 C 528.753906 88.464844 528.660156 86.960938 528.507812 85.457031 Z M 528.507812 85.457031 " fill-opacity="1" fill-rule="nonzero"/><path fill="#d17750" d="M 530.253906 70.128906 C 531.785156 71.171875 532.429688 71.660156 533.808594 72.855469 C 537.394531 63.105469 540.210938 49.308594 533.839844 40.597656 C 529.792969 35.078125 523.144531 32.65625 517.476562 29.285156 C 511.535156 25.726562 506.261719 20.820312 499.675781 18.519531 C 493.792969 16.4375 487.542969 16.589844 481.445312 18 C 479.578125 18.429688 477.707031 18.980469 475.871094 19.625 C 471.425781 21.21875 467.136719 23.398438 463.335938 25.695312 C 451.113281 33.148438 446.546875 47.128906 436.496094 56.511719 C 435.640625 56.542969 434.902344 57.25 434.933594 58.105469 C 434.414062 59.121094 435.332031 60.375 436.4375 60.347656 C 441.523438 65.925781 449.058594 72.824219 456.566406 73.53125 C 463.707031 74.234375 463.335938 68.011719 466.738281 64.027344 C 472.070312 57.832031 483.070312 62.953125 487.847656 55.253906 C 489.808594 52.128906 490.085938 48.234375 490.453125 44.707031 C 490.730469 41.703125 491.097656 38.820312 491.648438 36 C 491.769531 36.03125 491.863281 36.089844 491.984375 36.121094 C 492.933594 36.398438 493.914062 36.703125 494.867188 37.042969 C 503.261719 39.984375 511.320312 44.585938 517.234375 51.085938 C 520.050781 54.183594 520.175781 57.953125 522.289062 61.144531 C 524.433594 64.546875 528.785156 66.691406 530.253906 70.128906 Z M 530.253906 70.128906 " fill-opacity="1" fill-rule="nonzero"/><path fill="#9e4b29" d="M 463.550781 27.691406 C 444.554688 29.46875 433.1875 48.265625 428.5625 65.222656 C 428.410156 65.710938 428.285156 66.203125 428.164062 66.664062 C 426.816406 64.792969 425.589844 62.769531 424.546875 60.621094 C 423.90625 59.304688 423.292969 57.984375 422.769531 56.636719 C 422.832031 57.554688 422.863281 58.476562 422.953125 59.363281 C 421.945312 58.691406 420.902344 58.078125 419.828125 57.585938 C 420.933594 60.347656 422.15625 62.984375 423.660156 65.4375 C 424.761719 67.277344 425.988281 69.054688 427.335938 70.648438 C 426.601562 71.507812 425.835938 72.335938 425.070312 73.195312 C 423.660156 74.757812 422.371094 76.414062 421.761719 78.5 C 421.054688 81.042969 421.945312 83.160156 421.945312 85.703125 C 421.945312 87.144531 421.882812 88.402344 421.699219 89.476562 C 421.238281 92.511719 420.011719 94.320312 417.839844 96.160156 C 417.132812 96.835938 416.246094 97.480469 415.265625 98.214844 C 414.253906 98.949219 413.304688 99.71875 412.414062 100.484375 C 413.917969 100.085938 415.570312 99.105469 417.101562 97.9375 C 416.644531 99.132812 416.246094 100.300781 415.90625 101.558594 C 418.175781 99.933594 420.503906 98.398438 422.3125 96.222656 C 422.433594 96.097656 422.527344 95.976562 422.617188 95.882812 C 424.273438 93.769531 425.007812 91.804688 425.253906 89.414062 C 425.34375 88.863281 425.34375 88.25 425.34375 87.636719 C 425.34375 86.65625 425.3125 85.917969 425.253906 85.273438 C 425.128906 83.925781 425.007812 83.097656 425.253906 81.78125 C 425.773438 79.113281 427.089844 76.136719 428.808594 74.023438 C 429.542969 73.132812 430.460938 72.304688 430.738281 71.199219 C 431.289062 69.085938 431.257812 66.878906 431.871094 64.699219 C 432.542969 62.429688 433.3125 60.222656 434.167969 58.046875 C 435.976562 53.570312 438.214844 49.277344 441.03125 45.351562 C 446.546875 37.6875 454.453125 31.644531 464.074219 30.726562 C 466.125 30.570312 465.542969 27.476562 463.550781 27.691406 Z M 463.550781 27.691406 " fill-opacity="1" fill-rule="nonzero"/><path fill="#24140d" d="M 478.042969 89.507812 C 478.351562 88.617188 478.78125 87.757812 479.269531 86.960938 C 479.976562 85.859375 481.140625 84.753906 482.519531 84.875 C 483.773438 85 484.632812 86.164062 484.9375 87.328125 C 485.644531 89.996094 484.480469 94.199219 481.996094 95.882812 C 481.109375 96.496094 479.851562 96.710938 478.902344 96.222656 C 477.617188 95.578125 477.308594 93.984375 477.402344 92.601562 C 477.460938 91.589844 477.675781 90.519531 478.042969 89.507812 Z M 478.042969 89.507812 " fill-opacity="1" fill-rule="nonzero"/><path fill="#24140d" d="M 508.929688 92.050781 C 509.234375 91.164062 509.664062 90.304688 510.15625 89.507812 C 510.859375 88.402344 512.023438 87.296875 513.402344 87.421875 C 514.660156 87.542969 515.515625 88.710938 515.824219 89.875 C 516.527344 92.542969 515.363281 96.742188 512.882812 98.429688 C 511.992188 99.042969 510.738281 99.257812 509.789062 98.765625 C 508.5 98.121094 508.195312 96.527344 508.285156 95.148438 C 508.347656 94.136719 508.5625 93.0625 508.929688 92.050781 Z M 508.929688 92.050781 " fill-opacity="1" fill-rule="nonzero"/><path fill="#ffb18c" d="M 435.882812 75.800781 C 435.242188 81.535156 436.804688 99.441406 448.660156 101.128906 C 460.425781 102.8125 463.0625 88.925781 462.601562 83.035156 C 462.570312 82.515625 462.265625 82.117188 461.835938 81.839844 C 464.53125 75.339844 463.707031 64.425781 452.09375 61.542969 C 440.726562 58.78125 436.558594 69.820312 435.882812 75.800781 Z M 435.882812 75.800781 " fill-opacity="1" fill-rule="nonzero"/><path fill="#d97243" d="M 452.152344 82.515625 C 452.308594 79.910156 453.042969 77.457031 454.207031 75.15625 C 455.09375 73.347656 452.398438 71.78125 451.511719 73.59375 C 450.347656 75.953125 449.519531 78.316406 449.183594 80.953125 C 448.785156 84.078125 449.734375 87.390625 446.332031 89.136719 C 444.554688 90.058594 446.117188 92.726562 447.925781 91.835938 C 450.070312 90.734375 451.632812 88.925781 452.0625 86.5 C 452.277344 85.183594 452.0625 83.804688 452.152344 82.515625 Z M 452.152344 82.515625 " fill-opacity="1" fill-rule="nonzero"/><path fill="#d97243" d="M 501.421875 95.699219 C 500.777344 93.800781 497.960938 95.179688 498.605469 97.050781 C 499.859375 100.699219 501.207031 104.839844 498.664062 108.242188 C 497.46875 109.867188 500.011719 111.644531 501.207031 110.019531 C 504.488281 105.636719 503.078125 100.421875 501.421875 95.699219 Z M 501.421875 95.699219 " fill-opacity="1" fill-rule="nonzero"/><path fill="#d97243" d="M 499.796875 117.042969 C 496.246094 119.34375 488.921875 116.703125 487.789062 112.535156 C 487.265625 110.601562 484.203125 111.15625 484.722656 113.117188 C 486.53125 119.800781 496.152344 123.113281 501.820312 119.433594 C 503.507812 118.328125 501.484375 115.96875 499.796875 117.042969 Z M 499.796875 117.042969 " fill-opacity="1" fill-rule="nonzero"/><path fill="#ed9066" d="M 477.859375 100.390625 C 477.035156 97.753906 472.101562 96.128906 469.464844 96.160156 C 467.65625 96.191406 465.757812 96.683594 464.472656 97.9375 C 463.183594 99.195312 462.664062 101.34375 463.582031 102.90625 C 464.164062 103.855469 465.207031 104.46875 466.25 104.898438 C 468.054688 105.636719 470.015625 105.941406 471.976562 105.757812 C 473.601562 105.636719 475.257812 105.144531 476.453125 104.011719 C 477.859375 102.660156 478.199219 101.464844 477.859375 100.390625 Z M 477.859375 100.390625 " fill-opacity="1" fill-rule="nonzero"/><path fill="#ed9066" d="M 528.019531 103.335938 C 527.957031 104.347656 527.894531 105.296875 527.773438 106.25 C 527.558594 106.648438 527.222656 107.015625 526.792969 107.414062 C 525.597656 108.546875 523.941406 109.039062 522.289062 109.132812 C 520.359375 109.285156 518.398438 109.007812 516.558594 108.242188 C 515.515625 107.8125 514.503906 107.199219 513.921875 106.25 C 512.972656 104.683594 513.496094 102.570312 514.8125 101.3125 C 516.097656 100.054688 518 99.535156 519.804688 99.535156 C 522.320312 99.5625 526.792969 100.972656 528.019531 103.335938 Z M 528.019531 103.335938 " fill-opacity="1" fill-rule="nonzero"/><path fill="#d17750" d="M 492.660156 75.675781 C 492.292969 74.695312 491.527344 73.714844 490.390625 73.007812 C 487.789062 71.382812 484.050781 70.3125 481.199219 70.679688 C 477.707031 71.140625 474.460938 73.347656 472.316406 76.71875 C 471.917969 77.332031 471.609375 78.253906 472.070312 78.804688 C 472.253906 79.019531 472.5 79.082031 472.742188 79.140625 C 474.183594 79.449219 475.65625 79.265625 477.125 79.113281 C 481.355469 78.683594 485.613281 78.621094 489.871094 78.988281 C 492.566406 79.234375 493.332031 77.488281 492.660156 75.675781 Z M 492.660156 75.675781 " fill-opacity="1" fill-rule="nonzero"/><path fill="#d17750" d="M 506.875 80.398438 C 511.136719 80.738281 515.332031 81.472656 519.4375 82.605469 C 520.847656 83.007812 522.257812 83.433594 523.726562 83.375 C 523.972656 83.375 524.25 83.34375 524.464844 83.160156 C 525.015625 82.699219 524.863281 81.71875 524.585938 81.042969 C 523.023438 77.363281 520.175781 74.664062 516.804688 73.652344 C 514.046875 72.824219 510.1875 73.285156 507.367188 74.449219 C 506.140625 74.941406 505.222656 75.800781 504.699219 76.71875 C 503.691406 78.316406 504.148438 80.183594 506.875 80.398438 Z M 506.875 80.398438 " fill-opacity="1" fill-rule="nonzero"/><path fill="#252740" d="M 579.953125 300.929688 C 579.675781 288.664062 576.246094 276.398438 570.972656 262.386719 C 562.335938 239.296875 552.316406 216.699219 542.050781 194.3125 C 536.628906 182.507812 526.976562 173.15625 514.996094 168.21875 C 512.851562 167.359375 511.378906 166.839844 511.410156 167.054688 C 511.378906 167.085938 511.351562 167.085938 511.320312 167.144531 C 501.789062 181.742188 485.03125 187.8125 468.054688 188.089844 C 444.125 188.394531 420.808594 170.394531 420.808594 170.394531 C 420.808594 170.394531 404.296875 179.902344 403.558594 186.707031 C 403.285156 189.253906 402.761719 191.03125 402.976562 193.363281 C 403.191406 195.785156 403.558594 198.207031 403.527344 200.597656 C 403.527344 208.847656 402.917969 217.035156 402.886719 225.253906 C 402.824219 251.867188 405.429688 278.390625 408.125 304.886719 C 408.003906 320.125 407.542969 335.363281 406.65625 350.574219 C 405.796875 365.628906 403.070312 380.992188 402.945312 396.046875 C 402.734375 421.464844 447.3125 406.195312 460.058594 403.007812 C 466.125 401.503906 472.253906 400.03125 478.199219 398.039062 C 484.324219 396.015625 489.871094 393.410156 496.03125 392.671875 C 497.285156 392.519531 498.574219 392.457031 499.890625 392.457031 C 500.535156 392.488281 501.238281 392.550781 501.945312 392.582031 C 515.578125 393.871094 528.324219 399.878906 542.113281 400.585938 C 549.128906 400.953125 561.628906 401.199219 564.050781 392.671875 C 565.671875 386.96875 563.742188 379.210938 562.609375 373.601562 C 561.78125 369.308594 560.558594 365.105469 559.148438 360.9375 C 563.652344 352.65625 567.941406 344.316406 571.953125 335.761719 C 577.835938 323.191406 580.195312 312.027344 579.953125 300.929688 Z M 579.953125 300.929688 " fill-opacity="1" fill-rule="nonzero"/><path fill="#ffb18c" d="M 578.390625 199.1875 C 578.390625 200.078125 577.652344 200.660156 576.796875 200.722656 C 570.667969 201.058594 559.332031 197.042969 551.945312 195.847656 C 550.96875 195.664062 550.015625 195.570312 549.21875 195.539062 C 548.636719 195.507812 548.054688 195.570312 547.472656 195.539062 C 547.964844 196.214844 548.300781 196.917969 548.515625 197.6875 C 548.851562 198.730469 548.914062 199.863281 548.636719 201.058594 C 548.421875 202.007812 548.027344 202.777344 547.472656 203.421875 C 547.320312 203.605469 547.199219 203.789062 547.015625 203.910156 C 547.65625 204.460938 548.210938 205.167969 548.484375 206.148438 C 548.578125 206.425781 548.667969 206.761719 548.699219 207.070312 C 549.066406 209.152344 548.578125 211.667969 547.503906 213.324219 C 547.441406 213.417969 547.382812 213.507812 547.320312 213.570312 C 546.832031 214.304688 546.15625 214.886719 545.421875 215.410156 C 545.453125 215.683594 545.480469 215.992188 545.511719 216.269531 C 545.605469 223.042969 537.484375 226.234375 531.234375 228.503906 C 524.496094 230.988281 524.125 238.007812 519.804688 243.621094 C 516.988281 247.269531 513.433594 250.210938 509.050781 251.714844 C 500.167969 254.8125 490.238281 249.628906 489.382812 239.816406 C 488.859375 233.652344 490.207031 230.832031 492.261719 225.160156 C 494.773438 218.351562 499.402344 211.945312 503.382812 205.964844 C 508.53125 198.300781 514.109375 189.253906 521.828125 183.949219 C 524.984375 181.773438 528.261719 181.863281 532 181.804688 C 540.058594 181.648438 555.101562 184.65625 562.824219 186.953125 C 568.554688 188.703125 578.449219 191.984375 578.390625 199.1875 Z M 578.390625 199.1875 " fill-opacity="1" fill-rule="nonzero"/><path fill="#d97243" d="M 549.21875 195.539062 C 548.636719 195.507812 548.054688 195.570312 547.472656 195.539062 C 547.964844 196.214844 548.300781 196.917969 548.515625 197.6875 C 546.953125 196.828125 545.328125 196.152344 543.125 195.90625 C 539.261719 195.507812 535.125 195.265625 531.785156 197.503906 C 530.132812 198.605469 528.109375 196.246094 529.765625 195.140625 C 533.441406 192.625 537.484375 192.351562 541.867188 192.65625 C 544.257812 192.8125 546.769531 193.085938 549.007812 194.066406 C 550.109375 194.527344 551.058594 195.171875 551.945312 195.847656 C 550.964844 195.691406 550.015625 195.570312 549.21875 195.539062 Z M 549.21875 195.539062 " fill-opacity="1" fill-rule="nonzero"/><path fill="#d97243" d="M 548.699219 207.101562 C 543.675781 205.320312 537.484375 204.339844 532.949219 206.886719 C 531.203125 207.898438 529.886719 205.074219 531.570312 204.0625 C 536.136719 201.425781 542.171875 201.886719 547.472656 203.390625 C 547.320312 203.574219 547.199219 203.757812 547.015625 203.878906 C 547.65625 204.433594 548.210938 205.136719 548.484375 206.117188 C 548.609375 206.457031 548.667969 206.761719 548.699219 207.101562 Z M 548.699219 207.101562 " fill-opacity="1" fill-rule="nonzero"/><path fill="#d97243" d="M 545.421875 215.441406 C 545.453125 215.714844 545.480469 216.023438 545.511719 216.296875 C 541.898438 215.347656 537.882812 216.023438 534.085938 216.726562 C 532.09375 217.097656 531.511719 214 533.503906 213.632812 C 538.097656 212.773438 543.03125 212.128906 547.351562 213.570312 C 546.832031 214.335938 546.15625 214.886719 545.421875 215.441406 Z M 545.421875 215.441406 " fill-opacity="1" fill-rule="nonzero"/><g clip-path="url(#ee0f46537e)"><path fill="#853d1c" d="M 414.683594 472.949219 C 401.539062 500.363281 387.996094 572.238281 381.867188 593.300781 L 354.445312 593.300781 C 351.808594 590.175781 350.308594 587.292969 349.359375 583.0625 C 346.570312 570.734375 341.574219 527.46875 338.328125 512.597656 C 338.113281 511.492188 337.839844 510.480469 337.59375 509.59375 C 337.59375 509.5625 337.5625 509.5 337.5625 509.46875 C 332.597656 491.683594 335.632812 463.628906 337.226562 451.730469 C 337.441406 450.414062 337.59375 449.277344 337.714844 448.417969 C 337.960938 446.917969 325.03125 452.804688 307.964844 425.175781 C 290.929688 397.578125 294.421875 380.347656 299.660156 361.214844 C 304.871094 342.046875 295.894531 343.429688 296.75 320.398438 C 297.578125 297.371094 320.097656 226.9375 352.972656 201.242188 C 365.75 191.277344 382.144531 183.398438 396.269531 178 C 397.25 177.632812 398.199219 177.296875 399.148438 176.925781 C 407.972656 173.675781 415.664062 171.46875 420.71875 170.304688 C 420.71875 170.304688 436.558594 212.40625 443.941406 281.734375 C 451.328125 351.09375 430.429688 440.140625 414.683594 472.949219 Z M 414.683594 472.949219 " fill-opacity="1" fill-rule="nonzero"/></g><path fill="#e6d2ca" d="M 436.96875 347.757812 C 437.574219 347.808594 438.167969 347.964844 438.746094 348.226562 C 439.324219 348.488281 439.878906 348.847656 440.40625 349.308594 C 440.933594 349.773438 441.421875 350.328125 441.878906 350.972656 C 442.335938 351.617188 442.746094 352.34375 443.113281 353.148438 C 443.476562 353.953125 443.792969 354.820312 444.054688 355.753906 C 444.320312 356.683594 444.527344 357.664062 444.675781 358.6875 C 444.824219 359.710938 444.917969 360.761719 444.945312 361.835938 C 444.976562 362.914062 444.949219 363.996094 444.859375 365.082031 C 444.769531 366.171875 444.621094 367.242188 444.414062 368.300781 C 444.210938 369.355469 443.949219 370.378906 443.632812 371.363281 C 443.320312 372.347656 442.957031 373.28125 442.542969 374.15625 C 442.132812 375.03125 441.679688 375.835938 441.1875 376.570312 C 440.695312 377.304688 440.171875 377.953125 439.617188 378.515625 C 439.0625 379.078125 438.484375 379.542969 437.890625 379.914062 C 437.292969 380.285156 436.691406 380.550781 436.078125 380.714844 C 435.464844 380.878906 434.851562 380.933594 434.246094 380.882812 C 433.636719 380.835938 433.046875 380.679688 432.46875 380.417969 C 431.886719 380.15625 431.335938 379.792969 430.808594 379.332031 C 430.28125 378.871094 429.789062 378.316406 429.335938 377.667969 C 428.878906 377.023438 428.46875 376.300781 428.101562 375.496094 C 427.734375 374.691406 427.421875 373.820312 427.15625 372.890625 C 426.894531 371.957031 426.6875 370.980469 426.539062 369.957031 C 426.386719 368.933594 426.296875 367.882812 426.265625 366.804688 C 426.234375 365.730469 426.265625 364.648438 426.355469 363.558594 C 426.445312 362.472656 426.59375 361.398438 426.796875 360.34375 C 427.003906 359.285156 427.265625 358.265625 427.578125 357.28125 C 427.894531 356.292969 428.257812 355.363281 428.671875 354.484375 C 429.082031 353.609375 429.535156 352.804688 430.027344 352.070312 C 430.519531 351.335938 431.042969 350.6875 431.597656 350.125 C 432.152344 349.5625 432.726562 349.097656 433.324219 348.726562 C 433.917969 348.359375 434.523438 348.089844 435.136719 347.929688 C 435.75 347.765625 436.359375 347.707031 436.96875 347.757812 Z M 436.96875 347.757812 " fill-opacity="1" fill-rule="nonzero"/><path fill="#e6d2ca" d="M 411.679688 479.726562 C 408.492188 488.34375 402.027344 493.863281 397.21875 492.082031 C 392.40625 490.304688 391.058594 481.871094 394.246094 473.285156 C 397.433594 464.671875 403.898438 459.152344 408.707031 460.929688 C 413.519531 462.707031 414.867188 471.109375 411.679688 479.726562 Z M 411.679688 479.726562 " fill-opacity="1" fill-rule="nonzero"/><path fill="#3d1908" d="M 434.382812 319.726562 C 434.292969 321.71875 431.167969 321.472656 431.289062 319.480469 C 432.117188 305.222656 430.214844 291.148438 425.097656 277.777344 C 420.839844 266.710938 415.355469 256.5 413.058594 244.753906 C 410.636719 232.367188 409.71875 219.949219 406.132812 207.804688 C 403.160156 197.777344 399.730469 187.90625 396.296875 178.0625 C 397.277344 177.695312 398.230469 177.355469 399.179688 176.988281 C 402.335938 186.15625 405.519531 195.292969 408.371094 204.554688 C 412.414062 217.617188 413.519531 230.832031 416.089844 244.171875 C 418.695312 257.570312 425.652344 269.101562 429.789062 281.949219 C 433.769531 294.183594 435.117188 306.910156 434.382812 319.726562 Z M 434.382812 319.726562 " fill-opacity="1" fill-rule="nonzero"/><path fill="#3d1908" d="M 427.828125 380.992188 C 424.976562 391.816406 420.78125 402.453125 415.480469 411.652344 C 412.015625 417.632812 407.449219 423.214844 401.414062 426.710938 C 393.816406 431.09375 385.113281 431.003906 376.6875 432.382812 C 366.085938 434.070312 360.144531 441.058594 351.378906 446.210938 C 347 448.757812 342.21875 450.625 337.285156 451.761719 C 337.5 450.441406 337.652344 449.308594 337.777344 448.449219 C 338.023438 448.386719 338.328125 448.296875 338.574219 448.234375 C 352.730469 444.308594 361.339844 431.675781 376.046875 429.316406 C 384.195312 428.027344 392.621094 428.179688 400.003906 423.917969 C 406.5625 420.179688 411.097656 413.617188 414.46875 407.023438 C 419.953125 396.351562 424.304688 384.027344 426.722656 371.792969 C 426.96875 374.890625 427.304688 377.957031 427.828125 380.992188 Z M 427.828125 380.992188 " fill-opacity="1" fill-rule="nonzero"/><path fill="#3d1908" d="M 423.691406 287.222656 C 413.976562 283.390625 404.324219 285.660156 394.890625 289.277344 C 382.816406 293.90625 371.175781 299.765625 359.898438 306.050781 C 358.949219 306.570312 358 307.0625 357.078125 307.582031 C 339.585938 299.855469 319.421875 304.515625 301.285156 307.492188 C 299.292969 307.828125 299.875 310.894531 301.867188 310.558594 C 318.503906 307.828125 337.132812 303.535156 353.402344 309.453125 C 344.886719 313.683594 336.429688 316.75 326.746094 318.929688 C 317.890625 320.921875 309.40625 323.40625 303.125 330.304688 C 301.777344 331.777344 303.796875 334.167969 305.144531 332.695312 C 312.191406 325 322.027344 323.222656 331.773438 321.074219 C 340.808594 319.050781 348.714844 315.953125 356.804688 311.414062 C 366.425781 306.050781 376.078125 300.867188 386.15625 296.359375 C 397.492188 291.300781 410.269531 285.230469 422.648438 290.136719 C 424.488281 290.902344 425.558594 287.957031 423.691406 287.222656 Z M 423.691406 287.222656 " fill-opacity="1" fill-rule="nonzero"/><path fill="#24140d" d="M 401.875 378.167969 C 400.957031 375.6875 400.21875 372.957031 399.609375 370.042969 C 392.957031 338.953125 403.132812 288.757812 403.132812 288.757812 C 403.132812 288.757812 419.921875 321.503906 426.539062 347.75 C 427.828125 352.8125 428.746094 357.65625 429.082031 361.917969 C 431.71875 396.109375 412.78125 407.605469 401.875 378.167969 Z M 401.875 378.167969 " fill-opacity="1" fill-rule="nonzero"/><g clip-path="url(#b22ae13ffc)"><path fill="#d99677" d="M 514.964844 441.671875 C 508.621094 495.089844 491.558594 546.726562 464.992188 593.332031 L 461.375 593.332031 C 488.277344 546.785156 505.496094 495.058594 511.839844 441.429688 C 512.085938 439.464844 515.179688 439.710938 514.964844 441.671875 Z M 514.964844 441.671875 " fill-opacity="1" fill-rule="nonzero"/></g><g clip-path="url(#54430e6f8d)"><path fill="#d99677" d="M 497.683594 541.480469 C 494.835938 558.992188 491.003906 576.285156 486.195312 593.332031 L 482.976562 593.332031 C 487.847656 576.222656 491.710938 558.808594 494.589844 541.238281 C 494.894531 539.242188 498.023438 539.488281 497.683594 541.480469 Z M 497.683594 541.480469 " fill-opacity="1" fill-rule="nonzero"/></g><path fill="#9e4b29" d="M 494.804688 37.042969 C 493.855469 36.703125 492.875 36.398438 491.925781 36.121094 C 491.742188 31.246094 490.332031 26.648438 485.859375 23.425781 C 482.761719 21.160156 479.269531 20.574219 475.839844 19.625 C 474.277344 19.257812 472.742188 18.765625 471.242188 18.0625 C 468.085938 16.589844 467.199219 15.027344 465.910156 12.726562 C 465.941406 12.726562 465.941406 12.726562 465.972656 12.726562 C 466.832031 11.988281 467.71875 11.316406 468.636719 10.761719 C 469.25 12.175781 469.957031 13.492188 470.9375 14.414062 C 472.4375 15.824219 475.625 16.222656 477.617188 16.742188 C 478.964844 17.109375 480.21875 17.507812 481.382812 18 C 490.730469 21.585938 494.375 28.148438 494.804688 37.042969 Z M 494.804688 37.042969 " fill-opacity="1" fill-rule="nonzero"/><path fill="#9e4b29" d="M 483.316406 32.472656 C 470.628906 30.386719 459.292969 36.0625 450.53125 44.921875 C 449.121094 46.332031 451.144531 48.722656 452.550781 47.3125 C 460.792969 38.972656 471.089844 33.609375 483.070312 35.570312 C 485.0625 35.90625 485.304688 32.808594 483.316406 32.472656 Z M 483.316406 32.472656 " fill-opacity="1" fill-rule="nonzero"/><path fill="#9e4b29" d="M 418.789062 89.660156 C 413.179688 89.75 407.542969 90.703125 402.886719 93.984375 C 401.261719 95.148438 399.238281 92.789062 400.894531 91.589844 C 404.171875 89.292969 407.757812 87.972656 411.558594 87.269531 C 406.59375 87.359375 400.894531 88.769531 396.296875 91.222656 C 395.746094 90.519531 395.316406 89.722656 394.980469 88.863281 C 394.917969 88.738281 394.890625 88.617188 394.859375 88.433594 C 402.363281 84.386719 412.324219 83.007812 419.003906 85.03125 C 419.921875 85.335938 420.136719 86.132812 419.921875 86.839844 C 420.871094 87.605469 420.410156 89.628906 418.789062 89.660156 Z M 418.789062 89.660156 " fill-opacity="1" fill-rule="nonzero"/><path fill="#d17750" d="M 439.132812 236.167969 C 437.90625 232.582031 436.28125 229.054688 435.609375 225.3125 C 434.566406 219.304688 437.261719 214.949219 439.746094 209.675781 C 443.515625 201.582031 445.535156 192.871094 440.601562 184.808594 C 437.601562 179.902344 432.453125 176.375 430.15625 171.039062 C 426.476562 162.453125 432.453125 154.050781 436.070312 146.632812 C 438.917969 140.773438 440.695312 134.519531 440.972656 127.988281 C 441.277344 121.027344 438.855469 114.496094 438.273438 107.71875 C 438.671875 107.046875 439.070312 106.308594 439.378906 105.480469 C 439.804688 104.378906 438.980469 103.582031 438.089844 103.457031 C 437.722656 101.863281 435.117188 101.773438 435.058594 103.640625 C 435.027344 104.714844 435.058594 105.789062 435.148438 106.863281 C 432.515625 110.785156 428.070312 113.085938 425.007812 116.765625 C 421.789062 120.660156 419.828125 125.472656 418.820312 130.410156 C 417.746094 135.777344 417.898438 141.328125 418.390625 146.753906 C 418.847656 151.84375 419.492188 155.648438 416.121094 160.523438 C 414.589844 162.761719 412.84375 164.539062 411.558594 166.992188 C 407.605469 174.503906 406.839844 183.671875 409.257812 191.800781 C 410.578125 196.214844 412.8125 200.015625 415.785156 203.511719 C 418.023438 206.179688 420.808594 208.601562 422.433594 211.699219 C 424.792969 216.175781 423.75 221.632812 423.382812 226.480469 C 422.769531 234.480469 420.6875 245.488281 428.316406 251.007812 C 432.730469 254.199219 439.59375 253.402344 441.03125 247.484375 C 441.953125 243.835938 440.328125 239.664062 439.132812 236.167969 Z M 439.132812 236.167969 " fill-opacity="1" fill-rule="nonzero"/><path fill="#ffe3d4" d="M 449.121094 97.082031 C 449.121094 97.050781 449.089844 97.019531 449.089844 96.988281 C 448.019531 94.628906 445.105469 94.71875 443.605469 96.558594 C 442.902344 97.449219 442.503906 98.550781 442.347656 99.6875 C 442.136719 101.1875 442.320312 102.90625 443.515625 103.828125 C 444.617188 104.683594 446.300781 104.5 447.40625 103.640625 C 448.507812 102.785156 449.121094 101.433594 449.367188 100.054688 C 449.519531 99.042969 449.519531 98 449.121094 97.082031 Z M 449.121094 97.082031 " fill-opacity="1" fill-rule="nonzero"/><path fill="#bdbec9" d="M 620.703125 166.195312 L 620.519531 166.6875 L 588.222656 248.832031 C 587.183594 251.5 584.058594 253.460938 581.269531 253.246094 L 540.917969 249.9375 C 538.128906 249.691406 536.6875 247.359375 537.761719 244.691406 L 570.207031 162.054688 C 571.28125 159.386719 574.40625 157.425781 577.195312 157.640625 L 617.515625 160.953125 C 620.335938 161.195312 621.742188 163.527344 620.703125 166.195312 Z M 620.703125 166.195312 " fill-opacity="1" fill-rule="nonzero"/><path fill="#ffffff" d="M 620.519531 166.6875 L 588.222656 248.832031 C 587.183594 251.5 584.058594 253.460938 581.269531 253.246094 L 541.621094 249.996094 L 573.914062 167.851562 C 574.957031 165.183594 578.082031 163.222656 580.871094 163.433594 Z M 620.519531 166.6875 " fill-opacity="1" fill-rule="nonzero"/><path fill="#bdbec9" d="M 579.859375 187.445312 C 579.613281 187.445312 579.339844 187.414062 579.09375 187.382812 C 577.347656 187.136719 575.816406 186.15625 574.925781 184.625 C 574.039062 183.121094 573.886719 181.28125 574.496094 179.65625 L 577.867188 170.824219 C 578.816406 168.3125 581.332031 166.839844 583.996094 167.175781 C 585.742188 167.421875 587.273438 168.402344 588.164062 169.9375 C 589.050781 171.4375 589.203125 173.277344 588.59375 174.902344 L 585.222656 183.734375 C 584.332031 186.003906 582.1875 187.445312 579.859375 187.445312 Z M 583.199219 170.242188 C 582.128906 170.242188 581.148438 170.886719 580.777344 171.929688 L 577.410156 180.761719 C 577.132812 181.496094 577.195312 182.324219 577.59375 183.027344 C 577.992188 183.734375 578.695312 184.164062 579.492188 184.285156 C 580.6875 184.441406 581.851562 183.765625 582.28125 182.628906 L 585.652344 173.800781 C 585.925781 173.0625 585.863281 172.234375 585.46875 171.53125 C 585.070312 170.824219 584.363281 170.394531 583.566406 170.273438 C 583.445312 170.242188 583.320312 170.242188 583.199219 170.242188 Z M 583.199219 170.242188 " fill-opacity="1" fill-rule="nonzero"/><path fill="#bdbec9" d="M 612.828125 183.917969 C 613.226562 184.347656 613.625 184.777344 614.054688 185.207031 C 616.167969 178.890625 618.375 172.574219 620.640625 166.316406 C 621.316406 164.417969 618.40625 163.3125 617.730469 165.214844 C 615.523438 171.285156 613.410156 177.355469 611.355469 183.488281 C 611.847656 183.335938 612.398438 183.429688 612.828125 183.917969 Z M 612.828125 183.917969 " fill-opacity="1" fill-rule="nonzero"/><path fill="#ffb18c" d="M 625.328125 256.957031 C 624.378906 248.496094 619.875 246.808594 621.285156 238.375 C 623.367188 225.835938 623.277344 215.132812 623.398438 206.179688 C 623.613281 191.0625 616.78125 183.640625 607.589844 176.558594 C 605.566406 174.996094 587.242188 163.558594 588.070312 172.511719 C 588.410156 176.285156 595.761719 178.796875 598.273438 180.546875 C 605.382812 185.574219 608.96875 190.726562 610.683594 198.054688 C 605.320312 192.65625 598.886719 188.332031 590.921875 188.363281 C 583.597656 188.363281 568.492188 193.945312 568.003906 202.621094 C 567.972656 203.296875 568.402344 203.972656 569.042969 204.21875 C 569.167969 204.25 569.320312 204.339844 569.441406 204.371094 C 570.332031 204.675781 571.1875 204.800781 572.109375 204.832031 C 572.046875 205.261719 572.046875 205.6875 572.109375 206.148438 C 572.261719 207.621094 573.179688 209.03125 574.957031 209.890625 C 575.539062 210.226562 576.183594 210.472656 576.949219 210.65625 C 577.253906 210.75 577.5625 210.75 577.867188 210.808594 C 577.746094 211.332031 577.652344 211.820312 577.683594 212.375 C 577.683594 213.9375 578.390625 215.472656 580.167969 216.511719 C 583.136719 218.261719 594.597656 219.394531 594.597656 219.394531 C 594.597656 219.394531 590.675781 231.875 590.15625 236.445312 C 588.898438 247.300781 597.570312 250.058594 602.257812 257.265625 C 607.710938 265.667969 619.140625 266.769531 622.816406 258.492188 C 623.644531 259.195312 625.511719 258.550781 625.328125 256.957031 Z M 625.328125 256.957031 " fill-opacity="1" fill-rule="nonzero"/><path fill="#d97243" d="M 608.785156 207.285156 C 597.816406 197.71875 582.769531 197.316406 572.015625 206.179688 C 571.953125 205.75 571.953125 205.289062 572.015625 204.863281 C 571.097656 204.832031 570.238281 204.675781 569.351562 204.402344 C 581.117188 194.191406 598.152344 193.914062 610.5625 204.738281 C 612.09375 206.027344 610.316406 208.570312 608.785156 207.285156 Z M 608.785156 207.285156 " fill-opacity="1" fill-rule="nonzero"/><path fill="#d97243" d="M 605.6875 215.5625 C 599.039062 208.753906 587.058594 209.675781 577.625 212.34375 C 577.59375 211.820312 577.683594 211.300781 577.808594 210.78125 C 577.5 210.71875 577.195312 210.71875 576.886719 210.625 C 576.121094 210.441406 575.449219 210.195312 574.894531 209.859375 C 585.773438 206.425781 599.960938 205.167969 608.046875 213.507812 C 609.457031 214.980469 607.066406 217.003906 605.6875 215.5625 Z M 605.6875 215.5625 " fill-opacity="1" fill-rule="nonzero"/><path fill="#ffe3d4" d="M 480.160156 234.941406 C 480.160156 234.941406 481.445312 232.734375 484.171875 232.582031 C 486.011719 232.488281 487.421875 234.238281 487.421875 234.238281 L 484.601562 237.792969 L 483.4375 238.589844 Z M 480.160156 234.941406 " fill-opacity="1" fill-rule="nonzero"/><path fill="#ffe3d4" d="M 472.804688 240.429688 C 472.804688 240.429688 474.09375 238.222656 476.820312 238.070312 C 478.65625 237.976562 480.066406 239.726562 480.066406 239.726562 L 477.246094 243.28125 L 476.082031 244.078125 Z M 472.804688 240.429688 " fill-opacity="1" fill-rule="nonzero"/><path fill="#ffb18c" d="M 511.226562 247.484375 C 511.226562 247.484375 481.199219 292.25 459.140625 314.972656 C 449.765625 324.632812 438.03125 336.898438 426.539062 347.78125 C 416.859375 356.980469 407.359375 365.230469 399.605469 370.074219 C 392.957031 338.980469 403.132812 288.785156 403.132812 288.785156 C 410.945312 283.664062 418.480469 278.851562 424.425781 275.324219 C 446.363281 262.324219 490.238281 231.015625 490.238281 231.015625 Z M 511.226562 247.484375 " fill-opacity="1" fill-rule="nonzero"/><path fill="#ffb18c" d="M 598.640625 249.996094 C 598.855469 275.507812 598.609375 301.050781 599.5625 326.5625 C 600.019531 339.105469 600.757812 351.617188 601.980469 364.125 C 602.960938 374.246094 602.5625 385.925781 612.707031 391.476562 C 622.417969 396.78125 638.625 392.152344 644.753906 382.984375 C 661.238281 358.300781 646.285156 327.789062 640.097656 301.050781 C 635.898438 282.808594 621.40625 244.664062 621.40625 244.664062 C 621.40625 244.664062 598.640625 249.996094 598.640625 249.996094 Z M 598.640625 249.996094 " fill-opacity="1" fill-rule="nonzero"/><path fill="#3d1908" d="M 392.589844 458.507812 C 379.570312 481.230469 360.757812 499.8125 338.328125 512.628906 C 338.113281 511.523438 337.839844 510.511719 337.59375 509.621094 C 337.59375 509.59375 337.5625 509.53125 337.5625 509.5 C 359.222656 496.898438 377.363281 478.714844 390.015625 456.699219 C 391.027344 454.980469 393.570312 456.789062 392.589844 458.507812 Z M 392.589844 458.507812 " fill-opacity="1" fill-rule="nonzero"/><path fill="#4c4e73" d="M 537.179688 309.269531 C 527.621094 338.03125 515.914062 366.671875 499.890625 392.429688 C 498.574219 392.429688 497.285156 392.488281 496.03125 392.644531 C 512.574219 366.609375 524.554688 337.480469 534.269531 308.226562 C 534.882812 306.296875 537.792969 307.367188 537.179688 309.269531 Z M 537.179688 309.269531 " fill-opacity="1" fill-rule="nonzero"/><path fill="#ffe3d4" d="M 485.367188 283.328125 C 484.695312 286.457031 479.546875 307.828125 472.285156 296.144531 C 469.3125 291.363281 469.160156 280.8125 469.191406 275.632812 C 469.25 264.898438 469.25 250.304688 475.625 241.320312 C 476.789062 239.664062 473.96875 238.683594 472.804688 240.339844 C 467.414062 247.972656 466.617188 255.976562 465.789062 264.992188 C 464.898438 274.894531 464.6875 285.691406 467.871094 295.257812 C 469.527344 300.191406 473.722656 304.976562 479.363281 302.308594 C 486.164062 299.121094 488.21875 284.21875 489.597656 277.839844 Z M 485.367188 283.328125 " fill-opacity="1" fill-rule="nonzero"/><path fill="#ffe3d4" d="M 494.070312 271.890625 C 493.394531 275.019531 488.800781 299.457031 480.128906 288.632812 C 476.605469 284.25 477.246094 273.054688 477.277344 267.875 C 477.339844 257.140625 477.003906 244.875 483.375 235.863281 C 484.539062 234.207031 481.324219 233.285156 480.160156 234.941406 C 474.765625 242.578125 474.644531 247.730469 473.847656 256.742188 C 472.957031 266.648438 472.652344 278.238281 475.839844 287.835938 C 477.492188 292.773438 481.84375 297.21875 487.511719 294.550781 C 494.3125 291.363281 496.917969 272.472656 498.265625 266.097656 Z M 494.070312 271.890625 " fill-opacity="1" fill-rule="nonzero"/></svg>